<svg width="57" height="40" viewBox="0 0 57 40" fill="none" xmlns="http://www.w3.org/2000/svg">
<path d="M30.1323 0.617837L31.0153 1.23569V17.6492V34.0359L32.2193 35.6208C32.8614 36.4804 33.7845 37.5012 34.2661 37.8773C35.0286 38.4952 35.0687 38.4952 34.8279 37.9579C33.2226 34.1165 34.2661 29.9795 37.5971 27.0514C38.6004 26.1649 38.6406 26.0574 38.7208 21.034L38.8412 15.8762L42.5736 20.7116C45.6237 24.6337 46.2659 25.6276 45.8645 25.9231C45.4231 26.2724 46.0652 26.3261 50.7207 26.3261H56.0584L55.0149 25.5739C54.453 25.171 52.326 22.6727 50.3193 20.0132C47.0284 15.6882 46.7073 15.1509 47.3093 14.9091C49.1153 14.2107 51.6839 12.3571 52.5267 11.1483C53.249 10.1275 53.4898 9.34843 53.4898 7.79036C53.4898 5.23834 52.3661 3.51908 49.6772 1.93414C46.8277 0.268613 45.0619 -2.03432e-05 36.4734 -2.03432e-05H29.2896L30.1323 0.617837ZM44.9415 5.74874C45.9047 6.31287 46.0652 6.60837 46.0652 7.76349C46.0652 8.89175 45.8645 9.24098 44.9816 9.85883C44.0586 10.4767 43.4566 10.611 41.2492 10.6916L38.6406 10.7991V7.95154V5.10402H41.2091C43.3763 5.10402 44.0184 5.21147 44.9415 5.74874Z" fill="#FAFAFA"/>
<path d="M20.7412 0.993954C22.4268 4.51306 21.4235 8.78433 18.2529 11.5244C17.1694 12.4915 17.1694 12.5452 16.9687 17.7567L16.768 23.0488L13.0356 18.2134C10.0658 14.345 9.38352 13.3242 9.78485 13.0019C10.1862 12.6795 9.46379 12.6258 4.88861 12.6258C-0.248439 12.6258 -0.449105 12.6527 0.353559 13.1093C0.995689 13.4586 8.94205 23.3174 8.94205 23.7741C8.94205 23.8278 8.17952 24.1502 7.21633 24.5263C5.3702 25.2516 3.76488 26.5947 2.72142 28.2603C1.95889 29.5497 1.95889 32.3435 2.76155 33.9284C3.56421 35.5402 6.05247 37.3938 8.42032 38.1729C10.1862 38.7638 10.9487 38.8176 18.3733 38.8982L26.4 39.0056L25.517 38.3609L24.594 37.7162V21.3027V4.91601L23.1893 3.00871C21.7445 1.10141 20.1793 -0.214897 20.7412 0.993954ZM16.9687 31.0272V33.8478H14.4002C12.2731 33.8478 11.5908 33.7404 10.748 33.23C9.34339 32.4241 8.98219 30.7317 9.98552 29.6034C10.9086 28.5289 11.8718 28.2334 14.6811 28.2334L16.9687 28.2065V31.0272Z" fill="#FAFAFA"/>
</svg>
