<svg width="31" height="30" viewBox="0 0 31 30" fill="none" xmlns="http://www.w3.org/2000/svg">
<path d="M15.5 0C11.2937 0 10.7648 0.01875 9.11206 0.09C7.45938 0.165 6.33369 0.41625 5.3475 0.7875C4.31306 1.16404 3.37608 1.75467 2.60206 2.51813C1.81365 3.26756 1.2034 4.1742 0.81375 5.175C0.430125 6.1275 0.168563 7.21875 0.093 8.8125C0.019375 10.4156 0 10.9256 0 15.0019C0 19.0744 0.019375 19.5844 0.093 21.1838C0.1705 22.7812 0.430125 23.8706 0.81375 24.825C1.21094 25.8112 1.73988 26.6475 2.60206 27.4819C3.46231 28.3162 4.32644 28.83 5.34556 29.2125C6.33369 29.5837 7.45744 29.8369 9.10819 29.91C10.7628 29.9812 11.2898 30 15.5 30C19.7102 30 20.2353 29.9812 21.8899 29.91C23.5387 29.835 24.6683 29.5837 25.6544 29.2125C26.6882 28.8358 27.6245 28.2451 28.3979 27.4819C29.2601 26.6475 29.7891 25.8112 30.1863 24.825C30.5679 23.8706 30.8295 22.7812 30.907 21.1838C30.9806 19.5844 31 19.0744 31 15C31 10.9256 30.9806 10.4156 30.907 8.81437C30.8295 7.21875 30.5679 6.1275 30.1863 5.175C29.7967 4.17417 29.1864 3.26752 28.3979 2.51813C27.6242 1.75439 26.6871 1.16371 25.6525 0.7875C24.6644 0.41625 23.5368 0.163125 21.8879 0.09C20.2333 0.01875 19.7083 0 15.4961 0H15.5019H15.5ZM14.1108 2.70375H15.5019C19.6404 2.70375 20.1306 2.71688 21.7639 2.79C23.2752 2.85563 24.0967 3.10125 24.6431 3.30562C25.3657 3.5775 25.8831 3.90375 26.4256 4.42875C26.9681 4.95375 27.3033 5.4525 27.5842 6.15375C27.7973 6.68062 28.0492 7.47563 28.117 8.93813C28.1926 10.5188 28.2081 10.9931 28.2081 14.9963C28.2081 18.9994 28.1926 19.4756 28.117 21.0562C28.0492 22.5187 27.7954 23.3119 27.5842 23.8406C27.3357 24.4919 26.9391 25.0808 26.4236 25.5637C25.8811 26.0887 25.3658 26.4131 24.6411 26.685C24.0986 26.8913 23.2771 27.135 21.7639 27.2025C20.1306 27.2738 19.6404 27.2906 15.5019 27.2906C11.3634 27.2906 10.8713 27.2738 9.238 27.2025C7.72675 27.135 6.90719 26.8913 6.36081 26.685C5.68753 26.4449 5.07843 26.0617 4.57831 25.5637C4.06245 25.0801 3.66521 24.4906 3.41581 23.8387C3.20463 23.3119 2.95081 22.5169 2.883 21.0544C2.80938 19.4738 2.79387 18.9994 2.79387 14.9925C2.79387 10.9875 2.80938 10.515 2.883 8.93437C2.95275 7.47187 3.20463 6.67688 3.41775 6.14813C3.69869 5.44875 4.03581 4.94812 4.57831 4.42312C5.12081 3.89812 5.63619 3.57375 6.36081 3.30188C6.90719 3.09563 7.72675 2.85188 9.238 2.78437C10.6679 2.72062 11.222 2.70188 14.1108 2.7V2.70375ZM23.7751 5.19375C23.5308 5.19375 23.2889 5.24031 23.0633 5.33077C22.8376 5.42123 22.6326 5.55381 22.4598 5.72096C22.2871 5.8881 22.1501 6.08653 22.0566 6.30492C21.9632 6.52331 21.9151 6.75737 21.9151 6.99375C21.9151 7.23013 21.9632 7.46419 22.0566 7.68258C22.1501 7.90097 22.2871 8.0994 22.4598 8.26654C22.6326 8.43369 22.8376 8.56627 23.0633 8.65673C23.2889 8.74719 23.5308 8.79375 23.7751 8.79375C24.2684 8.79375 24.7415 8.60411 25.0903 8.26654C25.4391 7.92898 25.6351 7.47114 25.6351 6.99375C25.6351 6.51636 25.4391 6.05852 25.0903 5.72096C24.7415 5.38339 24.2684 5.19375 23.7751 5.19375ZM15.5019 7.2975C14.4461 7.28156 13.3976 7.46904 12.4174 7.84901C11.4372 8.22899 10.5449 8.79388 9.79242 9.51079C9.03996 10.2277 8.44239 11.0823 8.0345 12.0249C7.62662 12.9674 7.41656 13.9791 7.41656 15.0009C7.41656 16.0228 7.62662 17.0345 8.0345 17.977C8.44239 18.9196 9.03996 19.7742 9.79242 20.4911C10.5449 21.208 11.4372 21.7729 12.4174 22.1529C13.3976 22.5328 14.4461 22.7203 15.5019 22.7044C17.5916 22.6728 19.5847 21.8473 21.0509 20.4061C22.5171 18.9649 23.3389 17.0234 23.3389 15.0009C23.3389 12.9784 22.5171 11.037 21.0509 9.59578C19.5847 8.15454 17.5916 7.32905 15.5019 7.2975ZM15.5019 9.99938C16.8724 9.99938 18.1867 10.5262 19.1558 11.464C20.1248 12.4018 20.6693 13.6738 20.6693 15C20.6693 16.3262 20.1248 17.5982 19.1558 18.536C18.1867 19.4738 16.8724 20.0006 15.5019 20.0006C14.1315 20.0006 12.8172 19.4738 11.8481 18.536C10.879 17.5982 10.3346 16.3262 10.3346 15C10.3346 13.6738 10.879 12.4018 11.8481 11.464C12.8172 10.5262 14.1315 9.99938 15.5019 9.99938Z" fill="#31C62D"/>
</svg>
