<svg width="29" height="28" viewBox="0 0 29 28" fill="none" xmlns="http://www.w3.org/2000/svg">
<path d="M24.7632 4.07057C23.4277 2.77501 21.8373 1.74788 20.0846 1.04904C18.3319 0.350201 16.4521 -0.00637746 14.5546 8.63282e-05C6.60365 8.63282e-05 0.123807 6.22657 0.116524 13.8705C0.116524 16.3188 0.782898 18.7005 2.041 20.8093L0 28L7.65419 26.0715C9.77167 27.1791 12.1439 27.7597 14.5546 27.7603H14.5619C22.5147 27.7603 28.9927 21.5338 29 13.8828C29.0018 12.0594 28.6282 10.2536 27.9008 8.5696C27.1733 6.88556 26.1082 5.35652 24.7632 4.07057ZM14.5546 25.4118C12.4044 25.4125 10.2937 24.8563 8.44437 23.8018L8.00741 23.5498L3.4666 24.6943L4.67918 20.4365L4.39515 19.9973C3.19314 18.1604 2.55743 16.0336 2.56171 13.8635C2.56171 7.51806 7.9455 2.34158 14.5619 2.34158C16.1381 2.33886 17.6994 2.63606 19.1555 3.21604C20.6117 3.79601 21.9341 4.6473 23.0463 5.72082C24.1625 6.79015 25.0473 8.06131 25.6498 9.46096C26.2523 10.8606 26.5605 12.3611 26.5566 13.8758C26.5493 20.244 21.1656 25.4118 14.5546 25.4118ZM21.1364 16.7773C20.7777 16.604 19.0062 15.7658 18.673 15.6468C18.3417 15.533 18.0995 15.4735 17.8628 15.82C17.6207 16.1648 16.9288 16.9505 16.7212 17.1763C16.5137 17.409 16.2988 17.4353 15.9383 17.2638C15.5797 17.0888 14.4162 16.7248 13.0398 15.54C11.9656 14.6213 11.2464 13.4838 11.0316 13.139C10.824 12.7925 11.0115 12.607 11.1918 12.4338C11.3502 12.2798 11.5505 12.0278 11.7307 11.8283C11.9128 11.6288 11.9729 11.4818 12.0912 11.2508C12.2096 11.0163 12.1531 10.8168 12.0639 10.6436C11.9729 10.4703 11.2537 8.76056 10.9496 8.07106C10.6583 7.39031 10.3616 7.48481 10.1394 7.47606C9.93188 7.46381 9.68973 7.46381 9.44757 7.46381C9.26471 7.46818 9.08476 7.50883 8.91902 7.58322C8.75327 7.6576 8.60531 7.76411 8.48443 7.89606C8.15306 8.24256 7.22633 9.08081 7.22633 10.7906C7.22633 12.5003 8.51902 14.1435 8.70109 14.3763C8.87952 14.609 11.2391 18.1073 14.8605 19.6123C15.7162 19.971 16.3899 20.1828 16.9161 20.3438C17.7809 20.6098 18.562 20.5695 19.1846 20.4838C19.8765 20.3823 21.3167 19.6438 21.6207 18.8335C21.9193 18.0215 21.9193 17.3285 21.8283 17.1833C21.7391 17.0363 21.4969 16.9505 21.1364 16.7773Z" fill="#31C62D"/>
</svg>
