<svg width="57" height="40" viewBox="0 0 57 40" fill="none" xmlns="http://www.w3.org/2000/svg">
<g clip-path="url(#clip0_191_2)">
<path d="M30.1322 0.617857L31.0153 1.23571V17.6492V34.0359L32.2192 35.6208C32.8613 36.4804 33.7845 37.5012 34.2661 37.8773C35.0286 38.4952 35.0687 38.4952 34.8279 37.9579C33.2226 34.1165 34.266 29.9795 37.597 27.0514C38.6003 26.1649 38.6405 26.0574 38.7207 21.034L38.8412 15.8762L42.5736 20.7116C45.6237 24.6337 46.2658 25.6276 45.8644 25.9231C45.423 26.2724 46.0651 26.3261 50.7206 26.3261H56.0583L55.0149 25.5739C54.453 25.171 52.326 22.6727 50.3193 20.0132C47.0284 15.6882 46.7072 15.1509 47.3092 14.9091C49.1152 14.2107 51.6838 12.3571 52.5266 11.1483C53.2489 10.1275 53.4897 9.34845 53.4897 7.79038C53.4897 5.23836 52.3661 3.5191 49.6772 1.93416C46.8277 0.268633 45.0619 0 36.4734 0H29.2896L30.1322 0.617857ZM44.9415 5.74876C45.9047 6.31289 46.0652 6.60839 46.0652 7.76351C46.0652 8.89177 45.8645 9.241 44.9816 9.85885C44.0586 10.4767 43.4565 10.611 41.2491 10.6916L38.6405 10.7991V7.95156V5.10404H41.209C43.3762 5.10404 44.0184 5.21149 44.9415 5.74876Z" fill="black"/>
<path d="M20.7412 0.993928C22.4268 4.51303 21.4235 8.7843 18.2529 11.5244C17.1694 12.4915 17.1694 12.5452 16.9687 17.7567L16.768 23.0488L13.0356 18.2134C10.0658 14.345 9.38352 13.3242 9.78485 13.0019C10.1862 12.6795 9.46379 12.6258 4.88861 12.6258C-0.248439 12.6258 -0.449105 12.6527 0.353559 13.1093C0.995689 13.4586 8.94205 23.3174 8.94205 23.7741C8.94205 23.8278 8.17952 24.1502 7.21633 24.5263C5.3702 25.2516 3.76488 26.5947 2.72142 28.2603C1.95889 29.5497 1.95889 32.3435 2.76155 33.9284C3.56421 35.5402 6.05247 37.3938 8.42032 38.1729C10.1862 38.7638 10.9487 38.8176 18.3733 38.8982L26.4 39.0056L25.517 38.3609L24.594 37.7162V21.3027V4.91598L23.1893 3.00868C21.7445 1.10138 20.1793 -0.214923 20.7412 0.993928ZM16.9687 31.0272V33.8478H14.4002C12.2731 33.8478 11.5908 33.7404 10.748 33.23C9.34339 32.4241 8.98219 30.7317 9.98552 29.6034C10.9086 28.5289 11.8718 28.2334 14.6811 28.2334L16.9687 28.2065V31.0272Z" fill="black"/>
</g>
<defs>
<clipPath id="clip0_191_2">
<rect width="57" height="40" fill="white"/>
</clipPath>
</defs>
</svg>
